<svg width="1231" height="42" viewBox="0 0 1231 42" fill="none" xmlns="http://www.w3.org/2000/svg">
<path d="M15.5374 7.73462V19.2049H4.99957V7.73462H0V35.1158H5.00092V24.0177H15.536V35.1158H20.5383V7.73462H15.5374ZM36.5453 26.2658C36.5453 27.3633 36.1093 28.4158 35.3333 29.1919C34.5572 29.9679 33.5047 30.4039 32.4072 30.4039C31.3097 30.4039 30.2571 29.9679 29.4811 29.1919C28.705 28.4158 28.2691 27.3633 28.2691 26.2658V14.537H23.5253V26.2658C23.5253 28.6191 24.4601 30.876 26.1242 32.54C27.7882 34.204 30.0451 35.1389 32.3984 35.1389C34.7517 35.1389 37.0086 34.204 38.6726 32.54C40.3366 30.876 41.2715 28.6191 41.2715 26.2658V14.537H36.5453V26.2658ZM71.6952 15.7456C71.6952 13.3405 73.2855 12.5785 75.0273 12.5785C76.4322 12.5785 78.2864 13.6478 79.5004 14.9443L82.6065 11.282C81.0555 9.18414 77.9101 7.73462 75.3346 7.73462C70.1875 7.73462 66.4655 10.7487 66.4655 15.7456C66.4655 25.0166 77.7964 22.0742 77.7964 27.2632C77.7964 28.863 76.2427 30.276 74.4643 30.276C71.6586 30.276 70.7491 28.905 69.4607 27.4541L66.0121 31.0393C68.2182 33.7462 70.9386 35.1213 74.1963 35.1213C79.0863 35.1213 83.0193 32.0706 83.0193 27.3011C83.0193 17.0097 71.6871 20.2078 71.6871 15.7456M141.795 30.7416C138.992 30.7416 138.195 29.5289 138.195 27.672V19.4499H142.553V15.284H138.195V9.78777L133.384 11.9465V28.6938C133.384 32.9774 136.34 35.1361 140.393 35.1361C141.029 35.147 141.665 35.0955 142.29 34.9846L143.463 30.6644C142.934 30.701 142.327 30.7375 141.795 30.7375M54.6027 14.6736C52.2532 14.6736 50.6128 15.3558 49.0266 16.9109V7.89838H44.2761V24.6038C44.2761 30.8566 48.7965 35.1416 53.8773 35.1416C59.513 35.1416 64.4706 30.7808 64.4706 24.9096C64.4706 19.1115 59.9082 14.6777 54.6027 14.6777M54.573 30.3599C53.8649 30.3599 53.1639 30.2204 52.5098 29.9495C51.8557 29.6786 51.2613 29.2814 50.7607 28.7808C50.26 28.2802 49.8629 27.6858 49.592 27.0317C49.321 26.3776 49.1816 25.6765 49.1816 24.9685C49.1816 24.2605 49.321 23.5594 49.592 22.9053C49.8629 22.2512 50.26 21.6569 50.7607 21.1562C51.2613 20.6556 51.8557 20.2585 52.5098 19.9875C53.1639 19.7166 53.8649 19.5771 54.573 19.5771C56.0028 19.5771 57.3742 20.1451 58.3852 21.1562C59.3963 22.1673 59.9643 23.5386 59.9643 24.9685C59.9643 26.3984 59.3963 27.7697 58.3852 28.7808C57.3742 29.7919 56.0028 30.3599 54.573 30.3599ZM106.195 24.6606C106.195 18.7786 101.249 14.4287 95.6022 14.4287C90.5227 14.4287 86.0009 18.7123 86.0009 24.9665V41.6813H90.7515V32.6567C92.335 34.209 93.978 34.8939 96.3249 34.8939C101.63 34.8939 106.194 30.46 106.194 24.6606M101.697 24.6011C101.697 26.0309 101.129 27.4023 100.118 28.4133C99.1065 29.4244 97.7351 29.9924 96.3053 29.9924C94.8754 29.9924 93.5041 29.4244 92.493 28.4133C91.4819 27.4023 90.9139 26.0309 90.9139 24.6011C90.9139 23.1712 91.4819 21.7998 92.493 20.7888C93.5041 19.7777 94.8754 19.2097 96.3053 19.2097C97.7351 19.2097 99.1065 19.7777 100.118 20.7888C101.129 21.7998 101.697 23.1712 101.697 24.6011Z" fill="#B8B8D2"/>
<path d="M121.546 14.1986V9.42509C122.177 9.13028 122.711 8.66236 123.086 8.07581C123.461 7.48925 123.662 6.80819 123.665 6.1119V6.00227C123.665 3.97213 122.019 2.32636 119.989 2.32636H119.88C118.905 2.32636 117.97 2.71364 117.28 3.40301C116.591 4.09238 116.204 5.02736 116.204 6.00227V6.1119C116.207 6.80819 116.408 7.48925 116.783 8.07581C117.158 8.66236 117.692 9.13028 118.323 9.42509V14.1986C116.51 14.4762 114.803 15.2279 113.374 16.3777L100.282 6.18092C100.375 5.84392 100.424 5.49744 100.43 5.14961C100.431 4.33039 100.19 3.52909 99.7359 2.84708C99.2821 2.16506 98.6362 1.63297 97.8799 1.31811C97.1236 1.00325 96.2909 0.919755 95.4871 1.0782C94.6833 1.23664 93.9446 1.6299 93.3644 2.20823C92.7842 2.78657 92.3885 3.52399 92.2274 4.32722C92.0664 5.13046 92.1471 5.96342 92.4595 6.72074C92.7719 7.47807 93.3019 8.12573 93.9824 8.58182C94.663 9.0379 95.4635 9.28191 96.2827 9.28298C96.9994 9.27961 97.7027 9.08827 98.3223 8.72808L111.214 18.7597C110.056 20.5092 109.451 22.5671 109.48 24.665C109.508 26.7629 110.168 28.8035 111.373 30.521L107.453 34.4432C107.136 34.3419 106.805 34.2881 106.473 34.2835C105.8 34.2841 105.143 34.4839 104.584 34.8579C104.025 35.2318 103.59 35.763 103.333 36.3844C103.075 37.0057 103.008 37.6894 103.14 38.3489C103.271 39.0084 103.595 39.6142 104.07 40.0897C104.546 40.5652 105.152 40.889 105.811 41.0204C106.471 41.1517 107.154 41.0846 107.776 40.8275C108.397 40.5704 108.928 40.1349 109.302 39.576C109.676 39.0171 109.876 38.3599 109.877 37.6874C109.872 37.3547 109.818 37.0244 109.717 36.7075L113.596 32.8272C114.861 33.801 116.332 34.4724 117.896 34.7899C119.461 35.1073 121.077 35.0625 122.621 34.6588C124.166 34.2551 125.597 33.5033 126.806 32.4609C128.015 31.4184 128.97 30.1131 129.596 28.6449C130.223 27.1767 130.505 25.5846 130.421 23.9905C130.337 22.3963 129.89 20.8426 129.113 19.4481C128.336 18.0537 127.25 16.8556 125.938 15.9457C124.627 15.0358 123.124 14.4382 121.546 14.1986ZM119.938 29.8984C119.221 29.9181 118.507 29.794 117.839 29.5333C117.171 29.2726 116.562 28.8806 116.048 28.3805C115.534 27.8804 115.126 27.2824 114.847 26.6218C114.568 25.9611 114.424 25.2512 114.424 24.5341C114.424 23.817 114.568 23.1071 114.847 22.4464C115.126 21.7858 115.534 21.1878 116.048 20.6877C116.562 20.1876 117.171 19.7956 117.839 19.5349C118.507 19.2742 119.221 19.1501 119.938 19.1698C121.327 19.2184 122.644 19.8044 123.61 20.8043C124.576 21.8041 125.116 23.1399 125.116 24.5301C125.117 25.9204 124.578 27.2567 123.613 28.2575C122.648 29.2584 121.333 29.8456 119.943 29.8957" fill="#B8B8D2"/>
<path d="M321.824 15.7028H328.154C327.098 8.97308 321.272 4.28564 313.689 4.28564C304.717 4.28564 297.984 10.882 297.984 21.9295C297.984 32.7797 304.414 39.5094 313.872 39.5094C322.361 39.5094 328.437 34.0495 328.437 25.211V21.0932H314.525V25.9473H322.427C322.327 30.8375 319.063 33.9328 313.906 33.9328C308.165 33.9328 304.231 29.6316 304.231 21.8628C304.231 14.144 308.232 9.85944 313.772 9.85944C317.907 9.85944 320.735 12.0684 321.824 15.7028Z" fill="#B8B8D2"/>
<path d="M332.623 39.0396H338.683V13.338H332.623V39.0396ZM335.679 9.25346C337.605 9.25346 339.178 7.77805 339.178 5.97198C339.178 4.16592 337.605 2.67383 335.679 2.67383C333.754 2.67383 332.164 4.14647 332.164 5.97198C332.164 7.7975 333.726 9.25346 335.668 9.25346H335.679Z" fill="#B8B8D2"/>
<path d="M356.828 13.338H351.755V7.16406H345.695V13.338H342.047V18.0255H345.695V32.3239C345.661 37.1613 349.179 39.5481 353.73 39.4064C354.943 39.3825 356.145 39.1791 357.298 38.8035L356.276 34.0632C355.696 34.2136 355.101 34.293 354.503 34.2994C352.977 34.2994 351.755 33.7632 351.755 31.318V18.0116H356.828V13.338Z" fill="#B8B8D2"/>
<path d="M361.519 39.0396H382.831V33.8326H367.732V4.7522H361.519V39.0396Z" fill="#B8B8D2"/>
<path d="M394.439 39.5593C398.474 39.5593 400.883 37.6671 401.989 35.5082H402.189V39.0397H408.024V21.8293C408.024 15.033 402.483 12.9907 397.576 12.9907C392.169 12.9907 388.018 15.3997 386.679 20.0872L392.339 20.893C392.939 19.1341 394.648 17.6281 397.618 17.6281C400.433 17.6281 401.972 19.0674 401.972 21.5959V21.696C401.972 23.4353 400.146 23.5215 395.609 24.0049C390.622 24.5412 385.851 26.0305 385.851 31.8238C385.834 36.8808 389.532 39.5593 394.439 39.5593ZM396.432 35.1136C393.903 35.1136 392.094 33.9578 392.094 31.7321C392.094 29.4037 394.12 28.434 396.818 28.0478C398.41 27.831 401.591 27.4281 402.375 26.7946V29.8233C402.392 32.6768 400.08 35.1053 396.432 35.1053V35.1136Z" fill="#B8B8D2"/>
<path d="M412.486 39.0396H418.446V34.9885H418.796C419.752 36.864 421.744 39.4925 426.165 39.4925C432.225 39.4925 436.762 34.6856 436.762 26.2166C436.762 17.6447 432.091 12.9906 426.148 12.9906C421.611 12.9906 419.718 15.7192 418.796 17.578H418.54V4.7522H412.486V39.0396ZM418.429 26.1833C418.429 21.1818 420.571 17.9615 424.473 17.9615C428.507 17.9615 430.585 21.393 430.585 26.1833C430.585 30.9735 428.476 34.5189 424.473 34.5189C420.605 34.5189 418.429 31.1707 418.429 26.1833Z" fill="#B8B8D2"/>
<path d="M286.559 16.4973L286.501 16.3417L280.61 0.976278C280.491 0.674573 280.279 0.418637 280.004 0.245516C279.8 0.11447 279.567 0.0332055 279.325 0.00823459C279.084 -0.0167383 278.839 0.0152783 278.612 0.101717C278.385 0.188158 278.181 0.326614 278.017 0.505992C277.853 0.685368 277.733 0.900676 277.668 1.13466L273.692 13.3075H257.59L253.614 1.13466C253.547 0.901026 253.427 0.686123 253.263 0.507089C253.099 0.328056 252.895 0.189844 252.668 0.103475C252.441 0.0171065 252.197 -0.0150286 251.956 0.00963221C251.714 0.0342947 251.482 0.115068 251.277 0.245516C251.002 0.418637 250.79 0.674573 250.671 0.976278L244.783 16.3445L244.722 16.4973C243.875 18.7127 243.77 21.1436 244.425 23.4235C245.079 25.7034 246.457 27.7088 248.351 29.137L248.373 29.1536L248.423 29.1925L257.384 35.9083L261.83 39.2676L264.531 41.3098C264.847 41.5494 265.234 41.6788 265.631 41.6788C266.028 41.6788 266.414 41.5494 266.731 41.3098L269.432 39.2676L273.878 35.9083L282.902 29.1536L282.927 29.1342C284.821 27.7066 286.199 25.7018 286.854 23.4225C287.509 21.1431 287.406 18.7126 286.559 16.4973Z" fill="#B8B8D2"/>
<path d="M286.559 16.4974L286.501 16.3418C283.631 16.9307 280.926 18.1471 278.582 19.9039L265.647 29.6844L273.883 35.9084L282.908 29.1537L282.933 29.1343C284.826 27.7058 286.203 25.7008 286.857 23.4215C287.511 21.1422 287.406 18.7121 286.559 16.4974Z" fill="#B8B8D2"/>
<path d="M257.384 35.9083L261.83 39.2676L264.53 41.3098C264.847 41.5493 265.234 41.6788 265.631 41.6788C266.028 41.6788 266.414 41.5493 266.731 41.3098L269.432 39.2676L273.877 35.9083L265.642 29.6843L257.384 35.9083Z" fill="#B8B8D2"/>
<path d="M252.699 19.9038C250.356 18.1479 247.652 16.9325 244.783 16.3445L244.722 16.4973C243.875 18.7127 243.77 21.1436 244.425 23.4235C245.079 25.7034 246.457 27.7087 248.351 29.1369L248.373 29.1536L248.423 29.1925L257.384 35.9083L265.625 29.6843L252.699 19.9038Z" fill="#B8B8D2"/>
<path d="M578.97 18.7824H566.185L577.257 12.3911L575.061 8.58706L563.988 14.9784L570.379 3.90893L566.575 1.71322L560.182 12.7799V0H555.788V12.7813L549.395 1.71322L545.59 3.90893L551.981 14.9756L540.91 8.58706L538.713 12.3911L549.785 18.7824H537V23.1753H549.784L538.713 29.5666L540.909 33.3706L551.983 26.9793L545.59 38.0488L549.394 40.2445L555.788 29.1764V41.9563H560.182V28.9023L566.692 40.1746L570.26 38.1159L563.749 26.8408L575.059 33.3692L577.256 29.5652L566.185 23.1739H578.969V18.7824H578.97ZM557.985 26.9499C557.201 26.9501 556.424 26.7957 555.699 26.4955C554.974 26.1954 554.316 25.7556 553.761 25.2009C553.207 24.6464 552.766 23.988 552.466 23.2632C552.166 22.5385 552.011 21.7619 552.011 20.9775C552.011 20.193 552.166 19.4163 552.466 18.6915C552.766 17.9668 553.206 17.3082 553.76 16.7536C554.315 16.1989 554.973 15.7588 555.698 15.4585C556.423 15.1583 557.199 15.0037 557.984 15.0036C559.568 15.0034 561.087 15.6325 562.208 16.7526C563.328 17.8727 563.957 19.3919 563.958 20.9761C563.958 22.5602 563.329 24.0796 562.209 25.1999C561.089 26.3203 559.569 26.9498 557.985 26.9499Z" fill="#B8B8D2"/>
<path d="M590.297 36.3245V5.63208H595.93V36.3245H590.297ZM644.327 15.4666H649.705V18.012C650.849 15.9771 653.519 14.8737 655.806 14.8737C658.645 14.8737 660.931 16.1044 661.99 18.349C663.64 15.8037 665.845 14.8737 668.598 14.8737C672.453 14.8737 676.136 17.205 676.136 22.8006V36.3245H670.674V23.946C670.674 21.6985 669.572 20.0021 666.987 20.0021C664.572 20.0021 663.131 21.8692 663.131 24.1166V36.3259H657.543V23.946C657.543 21.6985 656.399 20.0021 653.856 20.0021C651.399 20.0021 649.958 21.8272 649.958 24.1166V36.3259H644.327V15.4666ZM608.661 36.9287C602.314 36.9287 597.719 32.2198 597.719 25.8956C597.719 19.6721 602.3 14.8527 608.661 14.8527C615.052 14.8527 619.603 19.7168 619.603 25.8956C619.603 32.175 615.005 36.9287 608.661 36.9287ZM608.661 19.9574C607.087 19.9596 605.578 20.5861 604.465 21.6998C603.352 22.8133 602.727 24.3228 602.725 25.897C602.727 27.4712 603.352 28.9806 604.465 30.0941C605.578 31.2078 607.087 31.8344 608.661 31.8366C610.235 31.8339 611.744 31.2072 612.856 30.0937C613.968 28.9802 614.594 27.4709 614.595 25.897C614.594 24.3231 613.968 22.8137 612.856 21.7002C611.744 20.5867 610.235 19.96 608.661 19.9574ZM631.635 36.9287C625.288 36.9287 620.693 32.2198 620.693 25.8956C620.693 19.6721 625.274 14.8527 631.635 14.8527C638.026 14.8527 642.577 19.7168 642.577 25.8956C642.577 32.175 637.976 36.9287 631.635 36.9287ZM631.635 19.886C630.043 19.8887 628.516 20.5227 627.391 21.6489C626.265 22.7751 625.632 24.3019 625.631 25.8942C625.632 27.4864 626.265 29.0132 627.391 30.1395C628.516 31.2657 630.043 31.8997 631.635 31.9023C633.227 31.8997 634.753 31.2657 635.879 30.1395C637.004 29.0132 637.637 27.4864 637.639 25.8942C637.637 24.3019 637.004 22.7751 635.879 21.6489C634.753 20.5227 633.227 19.8887 631.635 19.886Z" fill="#B8B8D2"/>
<path d="M809.131 7.20316C801.98 6.68947 794.014 6.68949 786.862 7.20316C785.365 7.31069 784.231 8.45699 784.119 9.85814C783.758 14.3516 783.709 21.0836 784.041 25.5725C784.15 27.0552 785.452 28.3279 787.213 28.3279H792.734V35.1384L787.224 35.1345C782.17 35.1345 777.633 31.3882 777.241 26.0739C776.884 21.2358 776.934 14.1535 777.322 9.31217C777.712 4.46022 781.614 0.744692 786.374 0.402783C793.851 -0.13426 802.143 -0.134262 809.62 0.402782C814.38 0.744689 818.282 4.46022 818.671 9.31217C819.06 14.1535 819.043 21.2358 818.686 26.0739C818.295 31.3882 813.768 35.1497 808.714 35.1497L803.261 35.1458L792.734 41.9563V35.1384L803.261 28.3279H808.715C810.476 28.3279 811.778 27.0552 811.887 25.5725C812.218 21.0836 812.236 14.3516 811.875 9.85814C811.763 8.45699 810.628 7.31069 809.131 7.20316Z" fill="#B8B8D2"/>
<path d="M829.392 29.9351H845.868V25.7982H834.385V4.97119H829.392V29.9351Z" fill="#B8B8D2"/>
<path d="M848.257 29.9353H853.107V11.3907H848.257V29.9353ZM847.865 6.54051C847.865 8.14534 849.041 9.35788 850.682 9.35788C852.322 9.35788 853.499 8.14534 853.499 6.54051C853.499 4.93568 852.322 3.72314 850.682 3.72314C849.041 3.72314 847.865 4.93568 847.865 6.54051Z" fill="#B8B8D2"/>
<path d="M872.124 11.3906H867.274L863.28 24.9781L859.286 11.3906H854.436L860.748 29.9353H865.812L872.124 11.3906Z" fill="#B8B8D2"/>
<path d="M880.779 30.3628C884.88 30.3628 888.197 27.902 888.839 24.5141H884.595C884.131 25.7979 882.847 26.8678 880.779 26.8678C877.961 26.8678 876.856 24.9777 876.856 22.8023V22.3386H888.981V19.0933C888.981 14.6355 886.2 10.9622 880.708 10.9622C875.144 10.9622 872.148 14.5285 872.148 19.5569V22.089C872.148 27.2958 875.536 30.3628 880.779 30.3628ZM876.856 18.7367C876.856 16.2403 877.926 14.3858 880.708 14.3858C883.311 14.3858 884.523 16.1333 884.523 18.4514V18.915H876.856V18.7367Z" fill="#B8B8D2"/>
<path d="M901.871 30.4342C908.184 30.4342 912.071 26.1547 912.321 21.0549H907.684C907.363 23.8723 905.58 26.333 901.871 26.333C897.699 26.333 895.916 23.48 895.916 19.4857V15.4202C895.916 11.4259 897.699 8.57291 901.871 8.57291C905.58 8.57291 907.363 11.0336 907.684 13.851H912.321C912.071 8.75122 908.184 4.47168 901.871 4.47168C894.346 4.47168 890.958 9.28617 890.958 15.6698V19.2361C890.958 25.6197 894.346 30.4342 901.871 30.4342Z" fill="#B8B8D2"/>
<path d="M914.957 29.9351H919.808V18.9509C919.808 16.4545 921.198 15.1707 923.374 15.1707C925.728 15.1707 926.761 16.7042 926.761 18.8439V29.9351H931.611V18.0593C931.611 13.6727 929.08 10.9624 925.049 10.9624C922.661 10.9624 920.77 11.9966 919.808 13.6014V3.90112H914.957V29.9351Z" fill="#B8B8D2"/>
<path d="M940.87 30.3628C943.01 30.3628 945.364 29.4712 946.22 28.223V29.9348H950.891V18.0948C950.891 13.7795 947.718 10.9622 943.081 10.9622C939.087 10.9622 936.198 12.888 935.128 16.4899H939.621C940.121 15.4914 941.156 14.7424 942.831 14.7424C944.828 14.7424 946.041 16.0263 946.041 17.7381V20.2702C945.185 19.5569 943.544 18.701 941.333 18.701C936.876 18.701 933.844 20.5555 933.844 24.5854C933.844 28.1873 936.697 30.3628 940.87 30.3628ZM942.118 27.1531C940.086 27.1531 938.551 26.1546 938.551 24.4427C938.551 22.7309 939.978 21.8037 942.26 21.8037C944.437 21.8037 946.041 22.7666 946.041 24.4071C946.041 25.9762 944.258 27.1531 942.118 27.1531Z" fill="#B8B8D2"/>
<path d="M959.955 29.9349H963.307V26.012H961.345C960.061 26.012 959.598 25.5127 959.598 24.3002V15.3132H963.556V11.3903H959.598V6.32617H954.712V11.3903H952.073V15.3132H954.712V24.6568C954.712 27.9378 956.389 29.9349 959.955 29.9349Z" fill="#B8B8D2"/>
<path d="M1066.81 11.5897H1082.95V16.1137L1076.86 16.588C1067.06 17.3176 1064 19.908 1064 27.2047V28.6641C1064 33.9907 1067.72 37.2013 1073.47 37.2013C1077.99 37.2013 1080.61 36.1432 1083.82 32.8597H1084.37V36.3256H1090.85V4.47534H1066.81V11.5897ZM1082.95 26.9493C1080.94 28.9559 1077.95 30.2693 1075.48 30.2693C1072.82 30.2693 1071.69 29.2843 1071.76 27.0587C1071.83 23.9942 1072.96 23.2645 1078.1 22.7902L1082.98 22.3159V26.9493H1082.95Z" fill="#B8B8D2"/>
<path fill-rule="evenodd" clip-rule="evenodd" d="M1104.71 9.48456H1117.23V15.9282H1124.08V41.0875H1116.1V16.5798H1104.71V41.0875H1096.73V0H1104.71V9.48456ZM1221.32 22.2271L1216.48 21.7564C1213.81 21.503 1213.15 20.8153 1213.15 18.7156C1213.15 16.3264 1214.1 15.7472 1217.84 15.7472C1221.17 15.7472 1222.12 16.2902 1222.6 18.5346H1230.11C1229.92 10.9687 1227.54 9.05014 1218.24 9.05014C1208.06 9.05014 1205.5 10.9687 1205.5 18.7156C1205.5 25.8109 1207.36 27.7295 1214.95 28.4535L1218.9 28.8156C1222.45 29.1413 1223.33 29.793 1223.33 31.9287C1223.33 34.499 1222.27 35.1868 1217.91 35.1868C1214.1 35.1868 1213.08 34.6077 1212.89 32.146H1205.31C1205.5 39.9653 1207.91 41.9563 1217.58 41.9563C1228.31 41.9563 1230.99 39.8205 1230.99 31.2047C1230.99 24.7973 1229.05 22.9511 1221.32 22.2271ZM1180.26 22.8063C1180.26 12.5977 1176.71 9.01389 1166.53 9.01389C1156.46 9.01389 1152.54 13.6475 1152.54 25.1955C1152.54 37.7932 1156.02 41.9563 1167.3 41.9563C1175.39 41.9563 1178.84 39.4946 1179.97 32.6166H1172.28C1171.4 34.7524 1170.49 35.2231 1167.19 35.2231C1162.24 35.2231 1160.96 33.8474 1160.67 27.9468H1179.79C1180.08 26.2091 1180.23 24.5077 1180.26 22.8063ZM1160.71 21.684C1160.78 17.2314 1162.57 15.6024 1166.86 15.6024C1170.96 15.6024 1172.61 17.2676 1172.76 21.684H1160.71ZM1184.91 10.8963V41.1237H1192.9V16.2902H1202.49V9.52072H1192.9V8.65189C1192.97 6.80568 1193.45 6.26267 1194.99 6.26267H1203.7V0.0362027H1194.33C1187.92 2.20695e-06 1184.91 1.95483 1184.91 10.8963ZM1137.89 41.0875H1129.91V9.48456H1149.76V16.9056H1137.89V41.0875Z" fill="#B8B8D2"/>
</svg>
