<svg width="58" height="70" viewBox="0 0 58 70" fill="none" xmlns="http://www.w3.org/2000/svg">
<path d="M35.632 5.064L24.784 5.16C20.304 5.352 18.064 5.86399 18.064 6.696V30.696C18.064 31.336 18.384 31.656 19.024 31.656H34.288C35.824 31.656 36.848 30.952 37.36 29.544C37.936 28.072 38.224 25.384 38.224 21.48L41.392 21L41.2 33.768L41.392 45.576L38.224 46.056C38.224 42.28 38 39.848 37.552 38.76C37.104 37.672 36.016 37.128 34.288 37.128H19.024C18.384 37.128 18.064 37.416 18.064 37.992V58.152C18.064 60.968 18.64 62.76 19.792 63.528C20.944 64.232 23.472 64.584 27.376 64.584H36.688C41.552 64.584 45.36 63.464 48.112 61.224C50.864 58.92 53.04 55.4 54.64 50.664L57.904 51.24C57.904 52.392 57.072 55.656 55.408 61.032C53.744 66.344 52.56 69 51.856 69L27.376 69.192C25.712 69.192 20.848 69.128 12.784 69L2.128 69.288L1.36 65.064C4.944 64.68 7.12 64.328 7.888 64.008C8.72 63.624 9.2 62.728 9.328 61.32V8.51999C9.328 7.176 8.88 6.28 7.984 5.832C7.088 5.384 5.008 5.032 1.744 4.776L0.88 0.551994L12.88 0.839996H28.336L52.048 0.935995C52.496 1.896 52.72 4.04 52.72 7.368C52.72 10.696 52.56 14.12 52.24 17.64L49.168 17.352C48.4 12.808 46.992 9.64 44.944 7.848C42.896 5.992 39.792 5.064 35.632 5.064Z" fill="#9146FF"/>
</svg>
